<svg width="32" height="33" viewBox="0 0 32 33" fill="none" xmlns="http://www.w3.org/2000/svg">
<mask id="mask0" mask-type="alpha" maskUnits="userSpaceOnUse" x="4" y="4" width="24" height="25">
<path fill-rule="evenodd" clip-rule="evenodd" d="M14.6667 4.00403H17.3333V17.3509H14.6667V4.00403ZM21.88 8.79555L23.7733 6.9003C26.36 9.10253 28 12.3592 28 16.0162C28 22.6496 22.6267 28.0284 16 28.0284C9.37333 28.0284 4 22.6496 4 16.0162C4 12.3592 5.64 9.10253 8.22667 6.9003L10.1067 8.78221C8.01333 10.4906 6.66667 13.0932 6.66667 16.0162C6.66667 21.1815 10.84 25.359 16 25.359C21.16 25.359 25.3333 21.1815 25.3333 16.0162C25.3333 13.0932 23.9867 10.4906 21.88 8.79555Z" fill="white"/>
</mask>
<g mask="url(#mask0)">
<rect width="32" height="32.0325" fill="#4A4A4A"/>
</g>
</svg>
