<svg width="32" height="33" viewBox="0 0 32 33" fill="none" xmlns="http://www.w3.org/2000/svg">
  <path fill-rule="evenodd" clip-rule="evenodd" d="M11.0754 10.9399C11.0754 14.0285 13.5832 16.5406 16.6667 16.5406C19.7501 16.5406 22.2575 14.0286 22.2575 10.9399C22.2575 7.85082 19.7502 5.33875 16.6667 5.33875C13.5834 5.33875 11.0754 7.85105 11.0754 10.9399ZM21.4026 10.9399C21.4026 13.5556 19.2779 15.6842 16.6667 15.6842C14.0553 15.6842 11.9303 13.5555 11.9303 10.9399C11.9303 8.32404 14.0556 6.19514 16.6667 6.19514C19.278 6.19514 21.4026 8.32378 21.4026 10.9399ZM16.678 16.8904C21.7247 16.8904 26.015 20.6761 26.6593 25.6971C26.6919 25.9487 26.6147 26.2022 26.4459 26.3955C26.278 26.5849 26.0371 26.6938 25.7844 26.6938H7.549C7.29586 26.6938 7.05473 26.585 6.88536 26.3931C6.71863 26.2022 6.64142 25.9487 6.67396 25.6976C7.25808 21.1468 10.8391 17.5592 15.381 16.9746C15.8121 16.9188 16.2487 16.8904 16.678 16.8904ZM16.6666 17.739C21.0988 17.739 25.4951 21.3367 25.4951 25.749H7.77801C7.77801 21.3367 12.2343 17.739 16.6666 17.739Z" fill="black"/>
  <path d="M26.6593 25.6971L26.213 25.7544L26.2131 25.7549L26.6593 25.6971ZM26.4459 26.3955L26.7826 26.6941L26.7848 26.6916L26.4459 26.3955ZM6.88536 26.3931L6.54644 26.6892L6.54799 26.6909L6.88536 26.3931ZM6.67396 25.6976L7.12023 25.7554L7.1203 25.7549L6.67396 25.6976ZM15.381 16.9746L15.4384 17.4209L15.4387 17.4208L15.381 16.9746ZM25.4951 25.749V26.199H25.9451V25.749H25.4951ZM7.77801 25.749H7.32801V26.199H7.77801V25.749ZM16.6667 16.0906C13.8324 16.0906 11.5254 13.7807 11.5254 10.9399H10.6254C10.6254 14.2763 13.334 16.9906 16.6667 16.9906V16.0906ZM21.8075 10.9399C21.8075 13.7808 19.5008 16.0906 16.6667 16.0906V16.9906C19.9994 16.9906 22.7075 14.2763 22.7075 10.9399H21.8075ZM16.6667 5.78875C19.5008 5.78875 21.8075 8.09857 21.8075 10.9399H22.7075C22.7075 7.60308 19.9995 4.88875 16.6667 4.88875V5.78875ZM11.5254 10.9399C11.5254 8.09884 13.8327 5.78875 16.6667 5.78875V4.88875C13.3342 4.88875 10.6254 7.60326 10.6254 10.9399H11.5254ZM16.6667 16.1342C19.5272 16.1342 21.8526 13.8034 21.8526 10.9399H20.9526C20.9526 13.3078 19.0286 15.2342 16.6667 15.2342V16.1342ZM11.4803 10.9399C11.4803 13.8033 13.8061 16.1342 16.6667 16.1342V15.2342C14.3046 15.2342 12.3803 13.3077 12.3803 10.9399H11.4803ZM16.6667 5.74514C13.8063 5.74514 11.4803 8.07625 11.4803 10.9399H12.3803C12.3803 8.57183 14.3048 6.64514 16.6667 6.64514V5.74514ZM21.8526 10.9399C21.8526 8.07604 19.5273 5.74514 16.6667 5.74514V6.64514C19.0287 6.64514 20.9526 8.57151 20.9526 10.9399H21.8526ZM27.1057 25.6398C26.4326 20.3954 21.9522 16.4404 16.678 16.4404V17.3404C21.4972 17.3404 25.5973 20.9568 26.213 25.7544L27.1057 25.6398ZM26.7848 26.6916C27.0377 26.402 27.1549 26.0199 27.1056 25.6392L26.2131 25.7549C26.229 25.8775 26.1918 26.0024 26.107 26.0995L26.7848 26.6916ZM25.7844 27.1438C26.1666 27.1438 26.5297 26.9792 26.7826 26.6941L26.1092 26.097C26.0262 26.1906 25.9076 26.2438 25.7844 26.2438V27.1438ZM7.549 27.1438H25.7844V26.2438H7.549V27.1438ZM6.54799 26.6909C6.80228 26.979 7.16604 27.1438 7.549 27.1438V26.2438C7.42569 26.2438 7.30717 26.191 7.22274 26.0953L6.54799 26.6909ZM6.22769 25.6398C6.17852 26.0192 6.29518 26.4015 6.54645 26.6891L7.22428 26.0971C7.14209 26.003 7.10432 25.8782 7.12023 25.7554L6.22769 25.6398ZM15.3235 16.5282C10.578 17.1391 6.83773 20.887 6.22762 25.6403L7.1203 25.7549C7.67843 21.4065 11.1001 17.9793 15.4384 17.4209L15.3235 16.5282ZM16.678 16.4404C16.2291 16.4404 15.7732 16.4701 15.3233 16.5283L15.4387 17.4208C15.851 17.3675 16.2683 17.3404 16.678 17.3404V16.4404ZM25.9451 25.749C25.9451 23.3878 24.7693 21.2692 23.0398 19.7512C21.3113 18.2341 19.0006 17.289 16.6666 17.289V18.189C18.7648 18.189 20.8684 19.0428 22.4461 20.4276C24.0228 21.8115 25.0451 23.6979 25.0451 25.749H25.9451ZM7.77801 26.199H25.4951V25.299H7.77801V26.199ZM16.6666 17.289C14.333 17.289 12.0079 18.2337 10.2648 19.7499C8.52087 21.2668 7.32801 23.3856 7.32801 25.749H8.22801C8.22801 23.7001 9.26328 21.8139 10.8555 20.4289C12.4487 19.0432 14.5678 18.189 16.6666 18.189V17.289Z" fill="#4A4A4A"/>
  <mask id="mask0" mask-type="alpha" maskUnits="userSpaceOnUse" x="5" y="4" width="23" height="24">
    <path fill-rule="evenodd" clip-rule="evenodd" d="M11.0754 10.9399C11.0754 14.0285 13.5832 16.5406 16.6667 16.5406C19.7501 16.5406 22.2575 14.0286 22.2575 10.9399C22.2575 7.85082 19.7502 5.33875 16.6667 5.33875C13.5834 5.33875 11.0754 7.85105 11.0754 10.9399ZM21.4026 10.9399C21.4026 13.5556 19.2779 15.6842 16.6667 15.6842C14.0553 15.6842 11.9303 13.5555 11.9303 10.9399C11.9303 8.32404 14.0556 6.19514 16.6667 6.19514C19.278 6.19514 21.4026 8.32378 21.4026 10.9399ZM16.678 16.8904C21.7247 16.8904 26.015 20.6761 26.6593 25.6971C26.6919 25.9487 26.6147 26.2022 26.4459 26.3955C26.278 26.5849 26.0371 26.6938 25.7844 26.6938H7.549C7.29586 26.6938 7.05473 26.585 6.88536 26.3931C6.71863 26.2022 6.64142 25.9487 6.67396 25.6976C7.25808 21.1468 10.8391 17.5592 15.381 16.9746C15.8121 16.9188 16.2487 16.8904 16.678 16.8904ZM16.6666 17.739C21.0988 17.739 25.4951 21.3367 25.4951 25.749H7.77801C7.77801 21.3367 12.2343 17.739 16.6666 17.739Z" fill="white"/>
    <path d="M26.6593 25.6971L25.965 25.7862L25.9651 25.787L26.6593 25.6971ZM26.4459 26.3955L26.9696 26.86L26.9731 26.8561L26.4459 26.3955ZM6.88536 26.3931L6.35815 26.8536L6.36056 26.8563L6.88536 26.3931ZM6.67396 25.6976L7.36816 25.7876L7.36827 25.7867L6.67396 25.6976ZM15.381 16.9746L15.4704 17.6688L15.4708 17.6688L15.381 16.9746ZM25.4951 25.749V26.449H26.1951V25.749H25.4951ZM7.77801 25.749H7.07801V26.449H7.77801V25.749ZM16.6667 15.8406C13.9709 15.8406 11.7754 13.643 11.7754 10.9399H10.3754C10.3754 14.414 13.1955 17.2406 16.6667 17.2406V15.8406ZM21.5575 10.9399C21.5575 13.6431 19.3623 15.8406 16.6667 15.8406V17.2406C20.1378 17.2406 22.9575 14.414 22.9575 10.9399H21.5575ZM16.6667 6.03875C19.3623 6.03875 21.5575 8.2362 21.5575 10.9399H22.9575C22.9575 7.46545 20.138 4.63875 16.6667 4.63875V6.03875ZM11.7754 10.9399C11.7754 8.2365 13.9712 6.03875 16.6667 6.03875V4.63875C13.1957 4.63875 10.3754 7.4656 10.3754 10.9399H11.7754ZM16.6667 16.3842C19.6657 16.3842 22.1026 13.941 22.1026 10.9399H20.7026C20.7026 13.1702 18.8902 14.9842 16.6667 14.9842V16.3842ZM11.2303 10.9399C11.2303 13.941 13.6676 16.3842 16.6667 16.3842V14.9842C14.443 14.9842 12.6303 13.17 12.6303 10.9399H11.2303ZM16.6667 5.49514C13.6678 5.49514 11.2303 7.93859 11.2303 10.9399H12.6303C12.6303 8.70949 14.4433 6.89514 16.6667 6.89514V5.49514ZM22.1026 10.9399C22.1026 7.93841 19.6658 5.49514 16.6667 5.49514V6.89514C18.8902 6.89514 20.7026 8.70915 20.7026 10.9399H22.1026ZM27.3536 25.608C26.6647 20.2394 22.0786 16.1904 16.678 16.1904V17.5904C21.3708 17.5904 25.3653 21.1128 25.965 25.7862L27.3536 25.608ZM26.9731 26.8561C27.2727 26.513 27.4122 26.0595 27.3535 25.6071L25.9651 25.787C25.9717 25.8379 25.9568 25.8914 25.9187 25.935L26.9731 26.8561ZM25.7844 27.3938C26.2385 27.3938 26.6696 27.1982 26.9696 26.86L25.9221 25.9311C25.8863 25.9715 25.8357 25.9938 25.7844 25.9938V27.3938ZM7.549 27.3938H25.7844V25.9938H7.549V27.3938ZM6.36056 26.8563C6.66204 27.1979 7.09392 27.3938 7.549 27.3938V25.9938C7.49781 25.9938 7.44741 25.9721 7.41017 25.9299L6.36056 26.8563ZM5.97977 25.6076C5.92135 26.0584 6.05992 26.5122 6.35816 26.8536L7.41257 25.9326C7.37734 25.8923 7.36148 25.839 7.36816 25.7876L5.97977 25.6076ZM15.2916 16.2803C10.433 16.9057 6.6042 20.7427 5.97966 25.6085L7.36827 25.7867C7.91196 21.5508 11.2451 18.2127 15.4704 17.6688L15.2916 16.2803ZM16.678 16.1904C16.2182 16.1904 15.7516 16.2208 15.2912 16.2803L15.4708 17.6688C15.8726 17.6168 16.2792 17.5904 16.678 17.5904V16.1904ZM26.1951 25.749C26.1951 23.3017 24.9766 21.1186 23.2047 19.5633C21.4343 18.0094 19.066 17.039 16.6666 17.039V18.439C18.6994 18.439 20.7453 19.2675 22.2812 20.6155C23.8155 21.9622 24.7951 23.784 24.7951 25.749H26.1951ZM7.77801 26.449H25.4951V25.049H7.77801V26.449ZM16.6666 17.039C14.2678 17.039 11.8855 18.0089 10.1008 19.5613C8.31465 21.1149 7.07801 23.2983 7.07801 25.749H8.47801C8.47801 23.7874 9.4695 21.9659 11.0196 20.6176C12.5711 19.268 14.633 18.439 16.6666 18.439V17.039Z" fill="white"/>
  </mask>
  <g mask="url(#mask0)">
    <rect width="32" height="32.0325" fill="#4A4A4A" stroke="#4A4A4A" stroke-width="2"/>
  </g>
</svg>
