<svg width="142" height="23" viewBox="0 0 142 23" fill="none" xmlns="http://www.w3.org/2000/svg">
  <path d="M19.2688 21.8943V8.01375L13.7352 21.8943H11.2648L5.63241 8.01375V21.8005H0V0.979675H7.90514L12.5494 12.5155L17.0949 0.979675H25V21.8943H19.2688Z" fill="#343434"/>
  <path d="M27 14.8756C27 10.1611 30.6039 6.95526 35.5714 6.95526C38.9805 6.95526 41.026 8.36961 42 9.78395L38.7857 12.7069C38.2013 11.8583 37.1299 11.2926 35.8636 11.2926C33.8182 11.2926 32.1623 12.7069 32.1623 14.9699C32.1623 17.2328 33.7208 18.6472 35.8636 18.6472C37.2273 18.6472 38.2013 17.9872 38.7857 17.1385L42 20.0615C41.026 21.3816 38.9805 22.8902 35.5714 22.8902C30.7013 22.8902 27 19.5901 27 14.8756Z" fill="#343434"/>
  <path d="M64.3676 21.8943V8.01375L58.834 21.8943H56.3636L50.7312 8.01375V21.8005H45V0.979675H52.9051L57.5494 12.5155L62.0949 0.979675H70V21.8943H64.3676Z" fill="#343434"/>
  <path fill-rule="evenodd" clip-rule="evenodd" d="M82.0962 21.0155V22.4215H87V12.9543C87 8.26755 83.5385 6.95526 79.7885 6.95526C77.3846 6.95526 74.7885 7.61141 72.7692 9.29864L74.5962 12.6731C75.8462 11.642 77.3846 11.0796 78.9231 11.0796C80.9423 11.0796 82.0962 12.017 82.0962 13.3292V14.829C81.1346 13.7042 79.3077 13.048 77.2885 13.048C74.9808 13.048 72 14.2666 72 17.9223C72 21.2967 74.8846 22.8902 77.2885 22.8902C79.3077 22.8902 81.1346 22.1403 82.0962 21.0155ZM82.0962 17.2661V18.5784C81.5192 19.3283 80.3654 19.7032 79.3077 19.797C77.9615 19.797 76.8077 19.2346 76.8077 18.016C76.8077 16.7974 78.0577 16.235 79.3077 16.235C80.4615 16.235 81.6154 16.5162 82.0962 17.2661Z" fill="#343434"/>
  <path d="M99.8909 21.8943L96.4 16.5484L94.9455 18.2366V21.8943H90V0.979675H94.9455V12.7969L99.697 6.79451H105.709L99.9879 13.641L106 21.8943H99.8909Z" fill="#343434"/>
  <path d="M107 21.8943V0.979675H112V21.8943H107Z" fill="#343434"/>
  <path fill-rule="evenodd" clip-rule="evenodd" d="M122.144 6.95526C117.353 6.95526 114 10.444 114 14.8756C114 19.7787 117.641 22.8902 122.24 22.8902C124.539 22.8902 127.126 22.2302 128.659 20.9101L126.551 17.7043C125.689 18.5529 123.868 19.0243 122.814 19.0243C120.611 19.0243 119.365 17.8929 118.982 16.5728H130V15.4413C130 10.2554 126.743 6.95526 122.144 6.95526ZM119.078 13.1784C119.269 12.0469 120.132 10.8211 122.24 10.8211C124.443 10.8211 125.305 12.1412 125.401 13.1784H119.078Z" fill="#343434"/>
  <path d="M132 21.8943V6.34333H137.05V8.2632C138.139 7.01528 140.119 5.95935 142 5.95935V10.663C141.703 10.567 141.307 10.567 140.713 10.567C139.426 10.567 137.644 11.143 136.95 12.007V21.8943H132Z" fill="#343434"/>
</svg>
